# This file uses centimeters as units for non-parametric coordinates.

v 0.205583 0.085155 -0.974928
v 0.157346 0.157346 -0.974928
v 0.085155 0.205582 -0.974928
v 0.000000 0.222521 -0.974928
v -0.085155 0.205583 -0.974928
v -0.157346 0.157346 -0.974928
v -0.205582 0.085155 -0.974928
v -0.222521 0.000000 -0.974928
v -0.205583 -0.085155 -0.974928
v -0.157346 -0.157346 -0.974928
v -0.085155 -0.205583 -0.974928
v -0.000000 -0.222521 -0.974928
v 0.085155 -0.205583 -0.974928
v 0.157346 -0.157346 -0.974928
v 0.205583 -0.085155 -0.974928
v 0.222521 0.000000 -0.974928
v 0.400856 0.166040 -0.900969
v 0.306802 0.306802 -0.900969
v 0.166040 0.400856 -0.900969
v 0.000000 0.433884 -0.900969
v -0.166040 0.400856 -0.900969
v -0.306802 0.306802 -0.900969
v -0.400856 0.166040 -0.900969
v -0.433884 0.000000 -0.900969
v -0.400856 -0.166040 -0.900969
v -0.306802 -0.306802 -0.900969
v -0.166040 -0.400856 -0.900969
v -0.000000 -0.433884 -0.900969
v 0.166040 -0.400856 -0.900969
v 0.306802 -0.306802 -0.900969
v 0.400856 -0.166040 -0.900969
v 0.433884 0.000000 -0.900969
v 0.576030 0.238599 -0.781831
v 0.440874 0.440874 -0.781831
v 0.238600 0.576029 -0.781831
v 0.000000 0.623490 -0.781831
v -0.238599 0.576030 -0.781831
v -0.440874 0.440874 -0.781831
v -0.576029 0.238599 -0.781831
v -0.623490 0.000000 -0.781831
v -0.576030 -0.238599 -0.781831
v -0.440874 -0.440874 -0.781831
v -0.238599 -0.576029 -0.781831
v -0.000000 -0.623490 -0.781831
v 0.238599 -0.576030 -0.781831
v 0.440874 -0.440874 -0.781831
v 0.576029 -0.238599 -0.781831
v 0.623490 0.000000 -0.781831
v 0.722318 0.299194 -0.623490
v 0.552839 0.552838 -0.623490
v 0.299194 0.722318 -0.623490
v 0.000000 0.781831 -0.623490
v -0.299194 0.722318 -0.623490
v -0.552838 0.552839 -0.623490
v -0.722318 0.299194 -0.623490
v -0.781832 0.000000 -0.623490
v -0.722318 -0.299194 -0.623490
v -0.552839 -0.552838 -0.623490
v -0.299194 -0.722318 -0.623490
v -0.000000 -0.781832 -0.623490
v 0.299194 -0.722318 -0.623490
v 0.552838 -0.552838 -0.623490
v 0.722318 -0.299194 -0.623490
v 0.781832 0.000000 -0.623490
v 0.832387 0.344785 -0.433884
v 0.637082 0.637081 -0.433884
v 0.344786 0.832386 -0.433884
v 0.000000 0.900969 -0.433884
v -0.344785 0.832387 -0.433884
v -0.637081 0.637081 -0.433884
v -0.832387 0.344786 -0.433884
v -0.900969 0.000000 -0.433884
v -0.832387 -0.344786 -0.433884
v -0.637081 -0.637081 -0.433884
v -0.344786 -0.832387 -0.433884
v -0.000000 -0.900969 -0.433884
v 0.344786 -0.832387 -0.433884
v 0.637081 -0.637081 -0.433884
v 0.832387 -0.344786 -0.433884
v 0.900969 0.000000 -0.433884
v 0.900716 0.373088 -0.222521
v 0.689378 0.689378 -0.222521
v 0.373089 0.900716 -0.222521
v 0.000000 0.974928 -0.222521
v -0.373088 0.900716 -0.222521
v -0.689378 0.689378 -0.222521
v -0.900716 0.373089 -0.222521
v -0.974928 0.000000 -0.222521
v -0.900716 -0.373088 -0.222521
v -0.689378 -0.689378 -0.222521
v -0.373089 -0.900716 -0.222521
v -0.000000 -0.974928 -0.222521
v 0.373089 -0.900716 -0.222521
v 0.689378 -0.689378 -0.222521
v 0.900716 -0.373089 -0.222521
v 0.974928 0.000000 -0.222521
v 0.923880 0.382683 0.000000
v 0.707107 0.707106 0.000000
v 0.382684 0.923879 0.000000
v 0.000001 1.000000 0.000000
v -0.382683 0.923880 0.000000
v -0.707106 0.707107 0.000000
v -0.923879 0.382684 0.000000
v -1.000000 0.000000 0.000000
v -0.923880 -0.382683 0.000000
v -0.707107 -0.707107 0.000000
v -0.382684 -0.923879 0.000000
v -0.000000 -1.000000 0.000000
v 0.382683 -0.923880 0.000000
v 0.707107 -0.707107 0.000000
v 0.923880 -0.382683 0.000000
v 1.000000 0.000000 0.000000
v 0.497186 0.205941 0.843639
v 0.380529 0.380529 0.843639
v 0.205941 0.497186 0.843639
v 0.000000 0.538150 0.843639
v -0.205941 0.497186 0.843639
v -0.380529 0.380529 0.843639
v -0.497186 0.205941 0.843639
v -0.538150 0.000000 0.843639
v -0.497186 -0.205941 0.843639
v -0.380529 -0.380529 0.843639
v -0.205941 -0.497186 0.843639
v -0.000000 -0.538150 0.843639
v 0.205941 -0.497186 0.843639
v 0.380529 -0.380529 0.843639
v 0.497186 -0.205941 0.843639
v 0.538150 -0.000000 0.843639
v 0.400856 0.166040 0.900969
v 0.306802 0.306802 0.900969
v 0.166040 0.400856 0.900969
v 0.000000 0.433884 0.900969
v -0.166040 0.400856 0.900969
v -0.306802 0.306802 0.900969
v -0.400856 0.166040 0.900969
v -0.433884 0.000000 0.900969
v -0.400856 -0.166040 0.900969
v -0.306802 -0.306802 0.900969
v -0.166040 -0.400856 0.900969
v -0.000000 -0.433884 0.900969
v 0.166040 -0.400856 0.900969
v 0.306802 -0.306802 0.900969
v 0.400856 -0.166040 0.900969
v 0.433884 -0.000000 0.900969
v 0.205583 0.085155 0.781620
v 0.157346 0.157346 0.781620
v 0.085155 0.205582 0.781620
v 0.000000 0.222521 0.781620
v -0.085155 0.205583 0.781620
v -0.157346 0.157346 0.781620
v -0.205582 0.085155 0.781620
v -0.222521 0.000000 0.781620
v -0.205583 -0.085155 0.781620
v -0.157346 -0.157346 0.781620
v -0.085155 -0.205583 0.781620
v -0.000000 -0.222521 0.781620
v 0.085155 -0.205583 0.781620
v 0.157346 -0.157346 0.781620
v 0.205583 -0.085155 0.781620
v 0.222521 -0.000000 0.781620
v 0.000000 0.000000 -1.000000
vt 0.000000 0.071429
vt 0.062500 0.071429
vt 0.125000 0.071429
vt 0.187500 0.071429
vt 0.250000 0.071429
vt 0.312500 0.071429
vt 0.375000 0.071429
vt 0.437500 0.071429
vt 0.500000 0.071429
vt 0.562500 0.071429
vt 0.625000 0.071429
vt 0.687500 0.071429
vt 0.750000 0.071429
vt 0.812500 0.071429
vt 0.875000 0.071429
vt 0.937500 0.071429
vt 1.000000 0.071429
vt 0.000000 0.142857
vt 0.062500 0.142857
vt 0.125000 0.142857
vt 0.187500 0.142857
vt 0.250000 0.142857
vt 0.312500 0.142857
vt 0.375000 0.142857
vt 0.437500 0.142857
vt 0.500000 0.142857
vt 0.562500 0.142857
vt 0.625000 0.142857
vt 0.687500 0.142857
vt 0.750000 0.142857
vt 0.812500 0.142857
vt 0.875000 0.142857
vt 0.937500 0.142857
vt 1.000000 0.142857
vt 0.000000 0.214286
vt 0.062500 0.214286
vt 0.125000 0.214286
vt 0.187500 0.214286
vt 0.250000 0.214286
vt 0.312500 0.214286
vt 0.375000 0.214286
vt 0.437500 0.214286
vt 0.500000 0.214286
vt 0.562500 0.214286
vt 0.625000 0.214286
vt 0.687500 0.214286
vt 0.750000 0.214286
vt 0.812500 0.214286
vt 0.875000 0.214286
vt 0.937500 0.214286
vt 1.000000 0.214286
vt 0.000000 0.285714
vt 0.062500 0.285714
vt 0.125000 0.285714
vt 0.187500 0.285714
vt 0.250000 0.285714
vt 0.312500 0.285714
vt 0.375000 0.285714
vt 0.437500 0.285714
vt 0.500000 0.285714
vt 0.562500 0.285714
vt 0.625000 0.285714
vt 0.687500 0.285714
vt 0.750000 0.285714
vt 0.812500 0.285714
vt 0.875000 0.285714
vt 0.937500 0.285714
vt 1.000000 0.285714
vt 0.000000 0.357143
vt 0.062500 0.357143
vt 0.125000 0.357143
vt 0.187500 0.357143
vt 0.250000 0.357143
vt 0.312500 0.357143
vt 0.375000 0.357143
vt 0.437500 0.357143
vt 0.500000 0.357143
vt 0.562500 0.357143
vt 0.625000 0.357143
vt 0.687500 0.357143
vt 0.750000 0.357143
vt 0.812500 0.357143
vt 0.875000 0.357143
vt 0.937500 0.357143
vt 1.000000 0.357143
vt 0.000000 0.428571
vt 0.062500 0.428571
vt 0.125000 0.428571
vt 0.187500 0.428571
vt 0.250000 0.428571
vt 0.312500 0.428571
vt 0.375000 0.428571
vt 0.437500 0.428571
vt 0.500000 0.428571
vt 0.562500 0.428571
vt 0.625000 0.428571
vt 0.687500 0.428571
vt 0.750000 0.428571
vt 0.812500 0.428571
vt 0.875000 0.428571
vt 0.937500 0.428571
vt 1.000000 0.428571
vt 0.000000 0.500000
vt 0.062500 0.500000
vt 0.125000 0.500000
vt 0.187500 0.500000
vt 0.250000 0.500000
vt 0.312500 0.500000
vt 0.375000 0.500000
vt 0.437500 0.500000
vt 0.500000 0.500000
vt 0.562500 0.500000
vt 0.625000 0.500000
vt 0.687500 0.500000
vt 0.750000 0.500000
vt 0.812500 0.500000
vt 0.875000 0.500000
vt 0.937500 0.500000
vt 1.000000 0.500000
vt 0.000000 0.642857
vt 0.062500 0.642857
vt 0.125000 0.642857
vt 0.187500 0.642857
vt 0.250000 0.642857
vt 0.312500 0.642857
vt 0.375000 0.642857
vt 0.437500 0.642857
vt 0.500000 0.642857
vt 0.562500 0.642857
vt 0.625000 0.642857
vt 0.687500 0.642857
vt 0.750000 0.642857
vt 0.812500 0.642857
vt 0.875000 0.642857
vt 0.937500 0.642857
vt 1.000000 0.642857
vt 0.000000 0.857143
vt 0.062500 0.857143
vt 0.125000 0.857143
vt 0.187500 0.857143
vt 0.250000 0.857143
vt 0.312500 0.857143
vt 0.375000 0.857143
vt 0.437500 0.857143
vt 0.500000 0.857143
vt 0.562500 0.857143
vt 0.625000 0.857143
vt 0.687500 0.857143
vt 0.750000 0.857143
vt 0.812500 0.857143
vt 0.875000 0.857143
vt 0.937500 0.857143
vt 1.000000 0.857143
vt 0.000000 0.928572
vt 0.062500 0.928572
vt 0.125000 0.928572
vt 0.187500 0.928572
vt 0.250000 0.928572
vt 0.312500 0.928572
vt 0.375000 0.928572
vt 0.437500 0.928572
vt 0.500000 0.928572
vt 0.562500 0.928572
vt 0.625000 0.928572
vt 0.687500 0.928572
vt 0.750000 0.928572
vt 0.812500 0.928572
vt 0.875000 0.928572
vt 0.937500 0.928572
vt 1.000000 0.928572
vt 0.031250 0.000000
vt 0.093750 0.000000
vt 0.156250 0.000000
vt 0.218750 0.000000
vt 0.281250 0.000000
vt 0.343750 0.000000
vt 0.406250 0.000000
vt 0.468750 0.000000
vt 0.531250 0.000000
vt 0.593750 0.000000
vt 0.656250 0.000000
vt 0.718750 0.000000
vt 0.781250 0.000000
vt 0.843750 0.000000
vt 0.906250 0.000000
vt 0.968750 0.000000
vn 0.263912 0.109316 -0.958332
vn 0.201989 0.201989 -0.958332
vn 0.330793 0.330793 -0.883828
vn 0.432202 0.179024 -0.883828
vn 0.109316 0.263912 -0.958332
vn 0.179024 0.432202 -0.883828
vn 0.000000 0.285656 -0.958332
vn 0.000000 0.467812 -0.883828
vn -0.109316 0.263912 -0.958332
vn -0.179024 0.432202 -0.883828
vn -0.201989 0.201989 -0.958332
vn -0.330793 0.330793 -0.883828
vn -0.263912 0.109316 -0.958332
vn -0.432202 0.179024 -0.883828
vn -0.285656 0.000000 -0.958332
vn -0.467812 0.000000 -0.883828
vn -0.263912 -0.109316 -0.958332
vn -0.432202 -0.179024 -0.883828
vn -0.201989 -0.201989 -0.958332
vn -0.330793 -0.330793 -0.883828
vn -0.109316 -0.263911 -0.958332
vn -0.179024 -0.432202 -0.883828
vn -0.000000 -0.285656 -0.958332
vn -0.000000 -0.467812 -0.883828
vn 0.109316 -0.263911 -0.958332
vn 0.179024 -0.432202 -0.883828
vn 0.201989 -0.201989 -0.958332
vn 0.330793 -0.330793 -0.883828
vn 0.263912 -0.109316 -0.958332
vn 0.432202 -0.179024 -0.883828
vn 0.285656 -0.000000 -0.958332
vn 0.467812 -0.000000 -0.883828
vn 0.455399 0.455399 -0.764999
vn 0.595007 0.246460 -0.764999
vn 0.246460 0.595007 -0.764999
vn 0.000000 0.644031 -0.764999
vn -0.246460 0.595007 -0.764999
vn -0.455399 0.455399 -0.764999
vn -0.595007 0.246460 -0.764999
vn -0.644031 0.000000 -0.764999
vn -0.595007 -0.246460 -0.764999
vn -0.455399 -0.455399 -0.764999
vn -0.246460 -0.595007 -0.764999
vn -0.000000 -0.644031 -0.764999
vn 0.246460 -0.595007 -0.764999
vn 0.455399 -0.455399 -0.764999
vn 0.595007 -0.246460 -0.764999
vn 0.644031 -0.000000 -0.764999
vn 0.561020 0.561019 -0.608699
vn 0.733008 0.303621 -0.608699
vn 0.303622 0.733007 -0.608699
vn 0.000000 0.793402 -0.608699
vn -0.303621 0.733008 -0.608699
vn -0.561019 0.561020 -0.608699
vn -0.733007 0.303622 -0.608698
vn -0.793402 0.000000 -0.608698
vn -0.733008 -0.303622 -0.608698
vn -0.561020 -0.561019 -0.608699
vn -0.303622 -0.733007 -0.608699
vn -0.000000 -0.793402 -0.608699
vn 0.303622 -0.733007 -0.608699
vn 0.561020 -0.561020 -0.608699
vn 0.733008 -0.303622 -0.608699
vn 0.793402 -0.000000 -0.608698
vn 0.640776 0.640775 -0.422863
vn 0.837214 0.346785 -0.422864
vn 0.346786 0.837213 -0.422864
vn 0.000000 0.906193 -0.422864
vn -0.346785 0.837214 -0.422864
vn -0.640775 0.640776 -0.422864
vn -0.837213 0.346785 -0.422864
vn -0.906193 0.000000 -0.422864
vn -0.837214 -0.346785 -0.422864
vn -0.640776 -0.640775 -0.422864
vn -0.346785 -0.837214 -0.422864
vn -0.000000 -0.906193 -0.422864
vn 0.346785 -0.837214 -0.422864
vn 0.640775 -0.640775 -0.422864
vn 0.837214 -0.346785 -0.422864
vn 0.906193 -0.000000 -0.422863
vn 0.690315 0.690314 -0.216636
vn 0.901940 0.373595 -0.216636
vn 0.373596 0.901939 -0.216636
vn 0.000000 0.976252 -0.216636
vn -0.373595 0.901940 -0.216636
vn -0.690314 0.690315 -0.216636
vn -0.901940 0.373596 -0.216636
vn -0.976252 0.000000 -0.216636
vn -0.901940 -0.373595 -0.216637
vn -0.690315 -0.690314 -0.216636
vn -0.373596 -0.901940 -0.216636
vn -0.000000 -0.976252 -0.216636
vn 0.373595 -0.901940 -0.216636
vn 0.690315 -0.690315 -0.216636
vn 0.901940 -0.373596 -0.216636
vn 0.976252 -0.000000 -0.216636
vn 0.662206 0.662206 0.350666
vn 0.865214 0.358383 0.350666
vn 0.358384 0.865214 0.350666
vn 0.000001 0.936501 0.350666
vn -0.358383 0.865214 0.350666
vn -0.662206 0.662206 0.350666
vn -0.865214 0.358384 0.350666
vn -0.936501 0.000000 0.350666
vn -0.865214 -0.358383 0.350666
vn -0.662206 -0.662206 0.350666
vn -0.358384 -0.865214 0.350666
vn -0.000000 -0.936501 0.350666
vn 0.358383 -0.865214 0.350666
vn 0.662206 -0.662206 0.350666
vn 0.865214 -0.358383 0.350666
vn 0.936501 -0.000000 0.350666
vn 0.608547 0.608547 0.509255
vn 0.795105 0.329343 0.509255
vn 0.329344 0.795105 0.509255
vn 0.000001 0.860616 0.509255
vn -0.329343 0.795105 0.509255
vn -0.608547 0.608547 0.509255
vn -0.795105 0.329344 0.509255
vn -0.860616 0.000000 0.509255
vn -0.795105 -0.329343 0.509255
vn -0.608547 -0.608547 0.509255
vn -0.329344 -0.795105 0.509255
vn -0.000000 -0.860616 0.509255
vn 0.329343 -0.795105 0.509255
vn 0.608547 -0.608547 0.509255
vn 0.795105 -0.329343 0.509255
vn 0.860616 -0.000000 0.509255
vn -0.023966 -0.023965 0.999425
vn -0.031313 -0.012970 0.999426
vn -0.012970 -0.031313 0.999425
vn 0.000000 -0.033893 0.999425
vn 0.012970 -0.031313 0.999425
vn 0.023966 -0.023966 0.999425
vn 0.031313 -0.012970 0.999425
vn 0.033893 -0.000000 0.999426
vn 0.031313 0.012970 0.999426
vn 0.023966 0.023966 0.999426
vn 0.012970 0.031313 0.999425
vn -0.000000 0.033893 0.999425
vn -0.012970 0.031313 0.999426
vn -0.023966 0.023966 0.999426
vn -0.031313 0.012970 0.999426
vn -0.033893 -0.000000 0.999425
vn -0.072128 -0.072128 0.994784
vn -0.094240 -0.039035 0.994784
vn -0.039036 -0.094240 0.994784
vn -0.000000 -0.102005 0.994784
vn 0.039036 -0.094240 0.994784
vn 0.072128 -0.072128 0.994784
vn 0.094240 -0.039036 0.994784
vn 0.102005 0.000000 0.994784
vn 0.094240 0.039036 0.994784
vn 0.072128 0.072129 0.994784
vn 0.039036 0.094241 0.994784
vn 0.000000 0.102005 0.994784
vn -0.039036 0.094241 0.994784
vn -0.072128 0.072129 0.994784
vn -0.094240 0.039036 0.994784
vn -0.102005 0.000000 0.994784
vn -0.000000 0.000000 -1.000000
f 1/1/1 2/2/2 18/19/3 17/18/4
f 2/2/2 3/3/5 19/20/6 18/19/3
f 3/3/5 4/4/7 20/21/8 19/20/6
f 4/4/7 5/5/9 21/22/10 20/21/8
f 5/5/9 6/6/11 22/23/12 21/22/10
f 6/6/11 7/7/13 23/24/14 22/23/12
f 7/7/13 8/8/15 24/25/16 23/24/14
f 8/8/15 9/9/17 25/26/18 24/25/16
f 9/9/17 10/10/19 26/27/20 25/26/18
f 10/10/19 11/11/21 27/28/22 26/27/20
f 11/11/21 12/12/23 28/29/24 27/28/22
f 12/12/23 13/13/25 29/30/26 28/29/24
f 13/13/25 14/14/27 30/31/28 29/30/26
f 14/14/27 15/15/29 31/32/30 30/31/28
f 15/15/29 16/16/31 32/33/32 31/32/30
f 16/16/31 1/17/1 17/34/4 32/33/32
f 17/18/4 18/19/3 34/36/33 33/35/34
f 18/19/3 19/20/6 35/37/35 34/36/33
f 19/20/6 20/21/8 36/38/36 35/37/35
f 20/21/8 21/22/10 37/39/37 36/38/36
f 21/22/10 22/23/12 38/40/38 37/39/37
f 22/23/12 23/24/14 39/41/39 38/40/38
f 23/24/14 24/25/16 40/42/40 39/41/39
f 24/25/16 25/26/18 41/43/41 40/42/40
f 25/26/18 26/27/20 42/44/42 41/43/41
f 26/27/20 27/28/22 43/45/43 42/44/42
f 27/28/22 28/29/24 44/46/44 43/45/43
f 28/29/24 29/30/26 45/47/45 44/46/44
f 29/30/26 30/31/28 46/48/46 45/47/45
f 30/31/28 31/32/30 47/49/47 46/48/46
f 31/32/30 32/33/32 48/50/48 47/49/47
f 32/33/32 17/34/4 33/51/34 48/50/48
f 33/35/34 34/36/33 50/53/49 49/52/50
f 34/36/33 35/37/35 51/54/51 50/53/49
f 35/37/35 36/38/36 52/55/52 51/54/51
f 36/38/36 37/39/37 53/56/53 52/55/52
f 37/39/37 38/40/38 54/57/54 53/56/53
f 38/40/38 39/41/39 55/58/55 54/57/54
f 39/41/39 40/42/40 56/59/56 55/58/55
f 40/42/40 41/43/41 57/60/57 56/59/56
f 41/43/41 42/44/42 58/61/58 57/60/57
f 42/44/42 43/45/43 59/62/59 58/61/58
f 43/45/43 44/46/44 60/63/60 59/62/59
f 44/46/44 45/47/45 61/64/61 60/63/60
f 45/47/45 46/48/46 62/65/62 61/64/61
f 46/48/46 47/49/47 63/66/63 62/65/62
f 47/49/47 48/50/48 64/67/64 63/66/63
f 48/50/48 33/51/34 49/68/50 64/67/64
f 49/52/50 50/53/49 66/70/65 65/69/66
f 50/53/49 51/54/51 67/71/67 66/70/65
f 51/54/51 52/55/52 68/72/68 67/71/67
f 52/55/52 53/56/53 69/73/69 68/72/68
f 53/56/53 54/57/54 70/74/70 69/73/69
f 54/57/54 55/58/55 71/75/71 70/74/70
f 55/58/55 56/59/56 72/76/72 71/75/71
f 56/59/56 57/60/57 73/77/73 72/76/72
f 57/60/57 58/61/58 74/78/74 73/77/73
f 58/61/58 59/62/59 75/79/75 74/78/74
f 59/62/59 60/63/60 76/80/76 75/79/75
f 60/63/60 61/64/61 77/81/77 76/80/76
f 61/64/61 62/65/62 78/82/78 77/81/77
f 62/65/62 63/66/63 79/83/79 78/82/78
f 63/66/63 64/67/64 80/84/80 79/83/79
f 64/67/64 49/68/50 65/85/66 80/84/80
f 65/69/66 66/70/65 82/87/81 81/86/82
f 66/70/65 67/71/67 83/88/83 82/87/81
f 67/71/67 68/72/68 84/89/84 83/88/83
f 68/72/68 69/73/69 85/90/85 84/89/84
f 69/73/69 70/74/70 86/91/86 85/90/85
f 70/74/70 71/75/71 87/92/87 86/91/86
f 71/75/71 72/76/72 88/93/88 87/92/87
f 72/76/72 73/77/73 89/94/89 88/93/88
f 73/77/73 74/78/74 90/95/90 89/94/89
f 74/78/74 75/79/75 91/96/91 90/95/90
f 75/79/75 76/80/76 92/97/92 91/96/91
f 76/80/76 77/81/77 93/98/93 92/97/92
f 77/81/77 78/82/78 94/99/94 93/98/93
f 78/82/78 79/83/79 95/100/95 94/99/94
f 79/83/79 80/84/80 96/101/96 95/100/95
f 80/84/80 65/85/66 81/102/82 96/101/96
f 81/86/82 82/87/81 98/104/97 97/103/98
f 82/87/81 83/88/83 99/105/99 98/104/97
f 83/88/83 84/89/84 100/106/100 99/105/99
f 84/89/84 85/90/85 101/107/101 100/106/100
f 85/90/85 86/91/86 102/108/102 101/107/101
f 86/91/86 87/92/87 103/109/103 102/108/102
f 87/92/87 88/93/88 104/110/104 103/109/103
f 88/93/88 89/94/89 105/111/105 104/110/104
f 89/94/89 90/95/90 106/112/106 105/111/105
f 90/95/90 91/96/91 107/113/107 106/112/106
f 91/96/91 92/97/92 108/114/108 107/113/107
f 92/97/92 93/98/93 109/115/109 108/114/108
f 93/98/93 94/99/94 110/116/110 109/115/109
f 94/99/94 95/100/95 111/117/111 110/116/110
f 95/100/95 96/101/96 112/118/112 111/117/111
f 96/101/96 81/102/82 97/119/98 112/118/112
f 98/104/97 114/121/113 113/120/114 97/103/98
f 99/105/99 115/122/115 114/121/113 98/104/97
f 100/106/100 116/123/116 115/122/115 99/105/99
f 101/107/101 117/124/117 116/123/116 100/106/100
f 102/108/102 118/125/118 117/124/117 101/107/101
f 103/109/103 119/126/119 118/125/118 102/108/102
f 104/110/104 120/127/120 119/126/119 103/109/103
f 105/111/105 121/128/121 120/127/120 104/110/104
f 106/112/106 122/129/122 121/128/121 105/111/105
f 107/113/107 123/130/123 122/129/122 106/112/106
f 108/114/108 124/131/124 123/130/123 107/113/107
f 109/115/109 125/132/125 124/131/124 108/114/108
f 110/116/110 126/133/126 125/132/125 109/115/109
f 111/117/111 127/134/127 126/133/126 110/116/110
f 112/118/112 128/135/128 127/134/127 111/117/111
f 97/119/98 113/136/114 128/135/128 112/118/112
f 114/121/113 130/138/129 129/137/130 113/120/114
f 115/122/115 131/139/131 130/138/129 114/121/113
f 116/123/116 132/140/132 131/139/131 115/122/115
f 117/124/117 133/141/133 132/140/132 116/123/116
f 118/125/118 134/142/134 133/141/133 117/124/117
f 119/126/119 135/143/135 134/142/134 118/125/118
f 120/127/120 136/144/136 135/143/135 119/126/119
f 121/128/121 137/145/137 136/144/136 120/127/120
f 122/129/122 138/146/138 137/145/137 121/128/121
f 123/130/123 139/147/139 138/146/138 122/129/122
f 124/131/124 140/148/140 139/147/139 123/130/123
f 125/132/125 141/149/141 140/148/140 124/131/124
f 126/133/126 142/150/142 141/149/141 125/132/125
f 127/134/127 143/151/143 142/150/142 126/133/126
f 128/135/128 144/152/144 143/151/143 127/134/127
f 113/136/114 129/153/130 144/152/144 128/135/128
f 129/137/130 130/138/129 146/155/145 145/154/146
f 130/138/129 131/139/131 147/156/147 146/155/145
f 131/139/131 132/140/132 148/157/148 147/156/147
f 132/140/132 133/141/133 149/158/149 148/157/148
f 133/141/133 134/142/134 150/159/150 149/158/149
f 134/142/134 135/143/135 151/160/151 150/159/150
f 135/143/135 136/144/136 152/161/152 151/160/151
f 136/144/136 137/145/137 153/162/153 152/161/152
f 137/145/137 138/146/138 154/163/154 153/162/153
f 138/146/138 139/147/139 155/164/155 154/163/154
f 139/147/139 140/148/140 156/165/156 155/164/155
f 140/148/140 141/149/141 157/166/157 156/165/156
f 141/149/141 142/150/142 158/167/158 157/166/157
f 142/150/142 143/151/143 159/168/159 158/167/158
f 143/151/143 144/152/144 160/169/160 159/168/159
f 144/152/144 129/153/130 145/170/146 160/169/160
f 2/2/2 1/1/1 161/171/161
f 3/3/5 2/2/2 161/172/161
f 4/4/7 3/3/5 161/173/161
f 5/5/9 4/4/7 161/174/161
f 6/6/11 5/5/9 161/175/161
f 7/7/13 6/6/11 161/176/161
f 8/8/15 7/7/13 161/177/161
f 9/9/17 8/8/15 161/178/161
f 10/10/19 9/9/17 161/179/161
f 11/11/21 10/10/19 161/180/161
f 12/12/23 11/11/21 161/181/161
f 13/13/25 12/12/23 161/182/161
f 14/14/27 13/13/25 161/183/161
f 15/15/29 14/14/27 161/184/161
f 16/16/31 15/15/29 161/185/161
f 1/17/1 16/16/31 161/186/161
f 160/169/160 145/154/146 146/155/145 147/156/147 148/157/148 149/158/149 150/159/150 151/160/151 152/161/152 153/162/153 154/163/154 155/164/155 156/165/156 157/166/157 158/167/158 159/168/159
